<svg xmlns="http://www.w3.org/2000/svg" width="86" height="100" viewBox="0 0 86 100">
    <g fill="none" fill-rule="evenodd">
        <path fill="#FFF" d="M42.976.217h.001l42.966 24.945.01 49.779-42.976 24.9L0 74.941l.005-49.785L42.976.217zM2.583 26.65L2.58 73.448l40.398 23.407 40.398-23.407-.01-46.792L42.977 3.208 2.583 26.65z"/>
        <path fill="#FFF" fill-opacity=".12" d="M42.976.217L.005 25.156 0 74.94l42.977 24.9 42.976-24.9-.01-49.779L42.977.217z"/>
        <path fill="#FFF" fill-opacity=".33" d="M4.55 41.087v6.467l13.908 7.913v6.884l-13.909-8.33v6.466l38.475 22.292 38.474-22.292v-6.622l-15.21 8.927v-6.426l15.21-8.812v-6.467L43.024 63.379z"/>
        <path fill="#FFF" d="M44.318 31.272l-.526-.34c-2.84-1.839-5.779-3.742-8.806-5.73l.643 4.262c2.016 1.266 3.995 2.493 5.934 3.698.359 1.565.731 3.202 1.116 4.914-2.056-1.224-4.163-2.472-6.318-3.755l.842 5.585a847.374 847.374 0 0 1 10.546 6.02c3.212 1.873 6.283 3.723 9.239 5.49l3.17-7.543c.812-1.931 1.531-3.658 2.182-5.206-.57-1.207-1.123-2.377-1.66-3.51-.43.797-.886 1.64-1.366 2.538-.55-1.245-1.081-2.449-1.6-3.616.508-.751.99-1.456 1.447-2.13l-1.394-2.947a1910.786 1910.786 0 0 0-2.72 3.213c-1.982-1.359-4.021-2.748-6.12-4.172l-4.609 3.23zm2.616-8.137v-5.238c2.05-1.009 4.122-.801 6.124.16 2.286 1.097 2.458.577 3.462.859-.41.382-.795.434-1.296.575l-1.503.112c.34.306 1.2.575 1.606.71.406.136 1.082.253 1.301.373-1.465 1.074-5.083-.807-7.233-.19-1.012.396-1.34.588-1.754.961v1.854l8.984 2.23c5.803 7.142 10.534 15.89 12.041 21.785-7.405-3.722-10.8 3.623-10.804 7.227-7.22.232-15.208 2.361-21.821 4.736-5.219 1.875-11.786 3.967-15.076 6.097C32.068 51.243 36.513 38.67 32.972 19.67l13.962 3.466z"/>
        <path fill="#FFF" d="M63.213 47.957c5.466-2.09 7.344 4.244 6.467 4.664-.76.365-2.265-.265-1.97 1.256.1.515.21.854.293 1.284.64 3.292 1.534 8.077.296 11.312-1.812 4.733-4.698 6.884-9.925 8.523 6.406-5.099 8.327-9.777 7.055-18.968-2.462 1.272-3.034 1.57-6.254 2.917 0-3.21.035-8.77 3.473-10.716.05-.028.1-.059.152-.086.038-.02.375-.172.413-.186zM51.734 66.71l1.434-3.986c5.26-1.78 7.384-2.798 11.55-5.027.142 1.308.236 2.77.161 4.717-3.645 1.435-7.849 3.116-13.145 4.296zm13.08-3.253c-.084.94-.702 3.268-1.357 4.532-4.613 1.735-6.847 2.416-13.81 3.5l1.595-3.653c5.74-1.15 9.497-2.843 13.573-4.38zm-19.8 16.675l-3.72-.754 6.276-14.292 2.826 2.834-5.382 12.212zm-4.374-.887l-3.722-.755 5.256-12.035 2.832 2.882-4.366 9.908zm-4.374-.887l-3.725-.755 4.383-10.036 2.83 2.806-3.488 7.985zm-4.382-.923l-3.729-.756 3.694-8.455 2.849 2.77-2.814 6.441zm-4.365-.851l-3.763-.764 3.302-7.56 2.849 2.77-2.388 5.554zm19.933-.07l1.807-4.09c5.228-.476 11.304-2.203 13.718-3.31-4.429 5.438-7.368 7.282-15.525 7.4zm.528-12.945c-.804-2.386-.537-4.693 2.037-4.8 2.445.008 2.977 2.466 2.259 4.59-.503 1.737-1.568 3.363-2.09 3.468-.56-.11-1.59-1.336-2.206-3.258zm-5.505 1.236c-.764-2.268-.436-4.33 1.936-4.562 2.324.008 2.829 2.344 2.147 4.363-.479 1.65-1.49 3.196-1.987 3.295-.53-.104-1.51-1.27-2.096-3.096zm-5.278 1.157c-.731-2.168-.488-4.265 1.85-4.362 2.222.008 2.705 2.241 2.053 4.172-.457 1.578-1.425 3.055-1.9 3.15-.507-.1-1.443-1.213-2.003-2.96zm-5.128.714c-.692-2.053-.462-4.04 1.753-4.131 2.104.007 2.562 2.122 1.944 3.95-.433 1.496-1.35 2.895-1.799 2.985-.48-.095-1.574-1.466-1.898-2.804zm-4.686.452c-.624-1.85-.416-3.64 1.58-3.722 1.895.006 2.307 1.912 1.75 3.56-.39 1.346-1.215 2.606-1.62 2.688-.433-.085-1.418-1.321-1.71-2.526zm-2.49 4.57l-.77 1.763c-.564-.136-5.168-1.402-8.149-2.357l1.201-1.298c2.844.858 4.252 1.326 7.719 1.892zm1.218-2.786c-3.414-.088-4.857-.38-7.441-.872l.985-1.184c2.93.178 4.482.267 7.213.323l-.757 1.733zm-7.74-.519c2.023.368 3.023.803 7.519 1.025l-.775 1.786c-1.522-.165-7.26-1.492-7.71-1.697l.965-1.114z"/>
        <path fill="#FEFEFE" fill-opacity=".66" d="M55.235 32.36a1680.874 1680.874 0 0 1 3.63 8.662l-3.171 6.386a1441.195 1441.195 0 0 0-8.61-5.248c-.54-2.03-1.051-3.956-1.546-5.789-.471-1.746-.928-3.413-1.364-5.005l4.737-3.318c2.17 1.473 4.278 2.91 6.324 4.313zm-.457.449a1343.66 1343.66 0 0 0-5.235-3.543c.34.924.686 1.876 1.042 2.851-.147-.011-.295-.025-.442-.037-.353-.985-.697-1.941-1.033-2.873-1.147.863-2.401 1.805-3.777 2.844a987.48 987.48 0 0 1 1.149 4.01c.41 1.443.829 2.943 1.266 4.504.643-.751 1.254-1.466 1.837-2.15.152.212.305.426.46.636-.578.704-1.182 1.443-1.816 2.214 2.338 1.434 4.607 2.837 6.81 4.208.99-1.837 1.886-3.49 2.695-4.991-.822-.546-1.654-1.1-2.496-1.658l-.014-.584c.827.549 1.644 1.09 2.454 1.63-.521-1.274-1.023-2.508-1.514-3.703-.473-1.153-.937-2.273-1.386-3.358z"/>
        <path fill="#FEFEFE" d="M54.33 43.37a1168.19 1168.19 0 0 0-3.882-5.388c-1.246-1.719-2.478-3.4-3.686-5.05 1.402.09 2.737.179 4.009.262 1.21.08 2.367.16 3.473.238.045.235.08 2.282.094 4.51.015 2.456.006 5.16-.009 5.428zm-2.589-7.4c.606-.71 1.181-1.382 1.732-2.02-1.621-.093-3.353-.187-5.207-.286 1.176.78 2.333 1.545 3.475 2.306zm.373.424c.542 1.538 1.107 3.142 1.692 4.813.007-1.278.006-2.493.006-3.649 0-1.103-.003-2.157-.004-3.164-.536.632-1.102 1.298-1.694 2zm-.436-.002c-1.155-.743-2.325-1.497-3.513-2.264.84 1.143 1.696 2.301 2.556 3.479.871 1.194 1.755 2.408 2.649 3.639-.585-1.686-1.15-3.305-1.692-4.854z"/>
    </g>
</svg>
